<?xml version="1.0" encoding="UTF-8"?>
<svg id="horizontal-small" xmlns="http://www.w3.org/2000/svg" viewBox="0 0 2497.03 480">
  <defs>
    <style>
      .cls-1 {
        fill: #3e0ac2;
      }

      .cls-2 {
        fill: #131313;
      }
    </style>
  </defs>
  <rect class="cls-1" x="215" y="5" width="30" height="30" rx="15" ry="15"/>
  <rect class="cls-1" x="180" y="45" width="55" height="30" rx="15" ry="15"/>
  <rect class="cls-1" x="145" y="85" width="80" height="30" rx="15" ry="15"/>
  <rect class="cls-1" x="110" y="125" width="105" height="30" rx="15" ry="15"/>
  <rect class="cls-1" x="75" y="165" width="130" height="30" rx="15" ry="15"/>
  <rect class="cls-1" x="40" y="205" width="305" height="30" rx="15" ry="15"/>
  <rect class="cls-1" x="5" y="245" width="305" height="30" rx="15" ry="15"/>
  <rect class="cls-1" x="145" y="285" width="130" height="30" rx="15" ry="15"/>
  <rect class="cls-1" x="135" y="325" width="105" height="30" rx="15" ry="15"/>
  <rect class="cls-1" x="125" y="365" width="80" height="30" rx="15" ry="15"/>
  <rect class="cls-1" x="115" y="405" width="55" height="30" rx="15" ry="15"/>
  <rect class="cls-1" x="105" y="445" width="30" height="30" rx="15" ry="15"/>
  <path class="cls-2" d="M1343.91,165.51c-35.91,0-65.2,19.87-81.46,47.86-1.02,1.75-3.7,1.03-3.7-1v-122.37c0-2.19-1.78-3.97-3.97-3.97h-19.21c-1.15,0-2.24.49-2.99,1.36l-22.81,26.07c-.63.72-.98,1.65-.98,2.62v275.98c0,2.19,1.78,3.97,3.97,3.97h42.02c2.19,0,3.97-1.78,3.97-3.97v-123.49c0-6.11,1-21.9,13.86-37.31,17.72-21.23,40.23-26.42,55.4-26.42,36.41,0,53.83,25.79,53.83,49.55v137.67c0,2.19,1.78,3.97,3.97,3.97h41.56c2.19,0,3.97-1.78,3.97-3.97v-139.1c0-43.16-31.79-87.44-87.44-87.44Z"/>
  <path class="cls-2" d="M845.13,165.51c-68.31,0-107.06,31.99-109.2,79.22-.1,2.27,1.7,4.17,3.97,4.17h41.13c2.08,0,3.8-1.61,3.96-3.68,1.74-22.23,19.68-37.61,60.14-37.61,47.36,0,60.28,20.2,60.28,51.17l-.08,14.96c-10.41,2.01-30.77,5.15-65.64,7.67-56.02,4.04-107.83,12.07-107.83,62.95,0,37.82,32.73,59.62,87.44,59.62,37.95,0,70.43-24.43,85.84-57.27v45.34c0,2.19,1.78,3.97,3.97,3.97h41.34c2.19,0,3.97-1.78,3.97-3.97v-133.27c0-63.29-45.71-93.27-109.29-93.27ZM831.7,368.94c-13.27,1.04-46.5,1.26-49.91-22.26-3.39-23.37,13.65-29.8,42.73-33.4,25.34-3.13,67.72-8.32,78.23-9.6,1.29-.16,2.38.94,2.21,2.23-.88,6.53-4.75,20.23-14.36,32.33-17.21,21.65-40.58,29.27-58.89,30.7Z"/>
  <path class="cls-2" d="M563.3,86.03h-62.81c-1.15,0-2.24.49-2.99,1.36l-46.51,53.16c-.63.72-.98,1.65-.98,2.62v248.89c0,2.19,1.78,3.97,3.97,3.97h109.32c96.24,0,156.96-59.22,156.96-155s-60.72-155-156.96-155ZM563.3,351.15h-61.8c-1.1,0-1.99-.89-1.99-1.99v-216.26c0-1.1.89-1.99,1.99-1.99h61.8c71.72,0,105.29,30.54,105.29,110.12s-33.57,110.12-105.29,110.12Z"/>
  <path class="cls-2" d="M2398.6,288.98c-.66-.75-.66-1.87,0-2.62l92.44-105.64c2.25-2.57.42-6.59-2.99-6.59h-49.07c-1.15,0-2.24.49-2.99,1.36l-66.85,76.4c-.79.9-2.2.9-2.99,0l-66.85-76.4c-.75-.86-1.84-1.36-2.99-1.36h-49.07c-3.41,0-5.24,4.02-2.99,6.59l92.44,105.64c.66.75.66,1.87,0,2.62l-88.48,101.12c-2.25,2.57-.42,6.59,2.99,6.59h49.07c1.15,0,2.24-.49,2.99-1.36l62.89-71.88c.79-.9,2.2-.9,2.99,0l62.89,71.88c.75.86,1.84,1.36,2.99,1.36h49.07c3.41,0,5.24-4.02,2.99-6.59l-88.48-101.12Z"/>
  <path class="cls-2" d="M1921.71,165.51h-23.97c-63.52.04-109.17,30.02-109.17,93.27v51.92c0,63.25,45.64,93.23,109.17,93.27h0s23.97,0,23.97,0c63.59,0,109.29-29.98,109.29-93.27v-51.92c0-63.29-45.71-93.27-109.29-93.27ZM1921.71,365.26h-23.85c-47.36,0-60.28-23.59-60.28-54.56v-51.92c0-30.97,12.91-54.28,60.28-54.28h23.85c47.36,0,60.28,23.31,60.28,54.28v51.92c0,30.97-12.91,54.56-60.28,54.56Z"/>
  <path class="cls-2" d="M2170.1,165.51c-31.65,0-53.01,14.94-65.55,37.34-1,1.78-3.72,1.06-3.72-.98v-24.44c0-2.19-1.78-3.97-3.97-3.97h-42.02c-2.19,0-3.97,1.78-3.97,3.97v214.62c0,2.19,1.78,3.97,3.97,3.97h42.02c2.19,0,3.97-1.78,3.97-3.97v-124.73c.01-6.67.47-20.21,11.19-35.67,15.2-21.93,31.51-26.81,46.68-26.81,36.41,0,45.78,25.79,45.78,49.55v14.46c0,2.19,1.78,3.97,3.97,3.97h41.13c2.19,0,3.97-1.78,3.97-3.97v-15.9c0-43.16-27.82-87.44-83.46-87.44Z"/>
  <path class="cls-2" d="M1739.33,176.47l-43.02,172.1c-.5,2.01-3.35,2.01-3.86,0l-43.02-172.1c-.44-1.77-2.03-3.01-3.86-3.01h-69.31c-1.82,0-3.41,1.24-3.86,3.01l-43.02,172.1c-.5,2.01-3.35,2.01-3.86,0l-43.02-172.1c-.44-1.77-2.03-3.01-3.86-3.01h-39.5c-2.59,0-4.48,2.43-3.86,4.94l53.65,214.62c.44,1.77,2.03,3.01,3.86,3.01h69.31c1.82,0,3.41-1.24,3.86-3.01l43.02-172.1c.5-2.01,3.35-2.01,3.86,0l43.02,172.1c.44,1.77,2.03,3.01,3.86,3.01h69.31c1.82,0,3.41-1.24,3.86-3.01l53.65-214.62c.63-2.51-1.27-4.94-3.86-4.94h-39.5c-1.82,0-3.41,1.24-3.86,3.01Z"/>
  <path class="cls-2" d="M1081.61,302.09c21.58,2.68,43.02,6.04,52.24,11.38,14.66,8.5,13.97,27.47,5.3,37.26-10.69,12.05-29.36,14.67-57.51,14.67-33.79,0-51.33-10.36-57.57-19.03-4.52-6.26-5.64-15.26-5.94-21.84-.1-2.12-1.85-3.79-3.97-3.79h-39.68c-2.3,0-4.12,1.95-3.97,4.25.66,9.61,3.69,33.34,17.65,48,18.87,19.69,47.12,30.99,93.47,30.99,39.74,0,75.15-3.75,99.96-35.03,6.19-7.81,11.3-21.76,11.3-32.81,0-12.59-2.62-22.36-8.28-31.25-9.57-18.63-34.24-28.23-60.56-32-11.29-1.62-26.86-3.29-42.44-5.36h.05c-21.58-2.68-43.02-6.04-52.24-11.38-14.66-8.5-13.97-27.47-5.3-37.26,10.69-12.05,29.36-14.67,57.51-14.67,33.79,0,51.32,10.36,57.57,19.03,4.52,6.26,5.64,15.26,5.94,21.84.1,2.12,1.85,3.79,3.97,3.79h39.63c2.3,0,4.12-1.95,3.97-4.25-.66-9.6-3.68-33.27-17.6-48-18.87-19.69-45.15-31.12-93.47-31.12-39.74,0-75.15,3.88-99.96,35.16-6.19,7.81-11.35,20.81-11.35,32.81,0,11.05,2.68,22.36,8.33,31.25,9.57,18.63,34.24,28.23,60.56,32,11.29,1.62,26.86,3.29,42.44,5.36h-.05Z"/>
</svg>